<mxfile host="app.diagrams.net" agent="Mozilla/5.0 (Macintosh; Intel Mac OS X 10_15_7) AppleWebKit/605.1.15 (KHTML, like Gecko) Version/17.5 Safari/605.1.15" version="27.0.4">
  <diagram name="Page-1" id="EiWO4pJbgceOzNh0tjMr">
    <mxGraphModel dx="1434" dy="627" grid="1" gridSize="10" guides="1" tooltips="1" connect="1" arrows="1" fold="1" page="1" pageScale="1" pageWidth="827" pageHeight="1169" math="0" shadow="0">
      <root>
        <mxCell id="0" />
        <mxCell id="1" parent="0" />
        <mxCell id="Uk7aoLf_V0q4Sp2WocQO-1" value="Core Banking System" style="whiteSpace=wrap;strokeWidth=2;" vertex="1" parent="1">
          <mxGeometry x="1286" y="20" width="209" height="54" as="geometry" />
        </mxCell>
        <mxCell id="Uk7aoLf_V0q4Sp2WocQO-2" value="CRM System" style="whiteSpace=wrap;strokeWidth=2;" vertex="1" parent="1">
          <mxGeometry x="1545" y="20" width="145" height="54" as="geometry" />
        </mxCell>
        <mxCell id="Uk7aoLf_V0q4Sp2WocQO-3" value="Internet/Mobile Banking" style="whiteSpace=wrap;strokeWidth=2;" vertex="1" parent="1">
          <mxGeometry x="2247" y="20" width="234" height="54" as="geometry" />
        </mxCell>
        <mxCell id="Uk7aoLf_V0q4Sp2WocQO-4" value="Payment Gateway" style="whiteSpace=wrap;strokeWidth=2;" vertex="1" parent="1">
          <mxGeometry x="1741" y="20" width="189" height="54" as="geometry" />
        </mxCell>
        <mxCell id="Uk7aoLf_V0q4Sp2WocQO-5" value="Excel/Manual Uploads" style="whiteSpace=wrap;strokeWidth=2;" vertex="1" parent="1">
          <mxGeometry x="1980" y="20" width="218" height="54" as="geometry" />
        </mxCell>
        <mxCell id="Uk7aoLf_V0q4Sp2WocQO-6" value="ETL/ELT Layer" style="whiteSpace=wrap;strokeWidth=2;" vertex="1" parent="1">
          <mxGeometry x="1710" y="136" width="163" height="54" as="geometry" />
        </mxCell>
        <mxCell id="Uk7aoLf_V0q4Sp2WocQO-7" value="Streaming&#xa;(Kafka, Event Hub)" style="whiteSpace=wrap;strokeWidth=2;" vertex="1" parent="1">
          <mxGeometry x="2267" y="124" width="196" height="78" as="geometry" />
        </mxCell>
        <mxCell id="Uk7aoLf_V0q4Sp2WocQO-8" value="Raw Zone&#xa;(Data Lake)" style="whiteSpace=wrap;strokeWidth=2;" vertex="1" parent="1">
          <mxGeometry x="1626" y="252" width="143" height="78" as="geometry" />
        </mxCell>
        <mxCell id="Uk7aoLf_V0q4Sp2WocQO-9" value="Cleaned Zone&#xa;(Data Warehouse)" style="whiteSpace=wrap;strokeWidth=2;" vertex="1" parent="1">
          <mxGeometry x="1318" y="380" width="187" height="78" as="geometry" />
        </mxCell>
        <mxCell id="Uk7aoLf_V0q4Sp2WocQO-10" value="Curated Data Marts" style="whiteSpace=wrap;strokeWidth=2;" vertex="1" parent="1">
          <mxGeometry x="1312" y="508" width="198" height="54" as="geometry" />
        </mxCell>
        <mxCell id="Uk7aoLf_V0q4Sp2WocQO-11" value="Semantic Layer&#xa;(Power BI Dataset / dbt metrics / LookML)" style="whiteSpace=wrap;strokeWidth=2;" vertex="1" parent="1">
          <mxGeometry x="610" y="660" width="159" height="54" as="geometry" />
        </mxCell>
        <mxCell id="Uk7aoLf_V0q4Sp2WocQO-12" value="Self-Service BI Tools&#xa;(Power BI, Tableau)" style="whiteSpace=wrap;strokeWidth=2;" vertex="1" parent="1">
          <mxGeometry x="180" y="800" width="128" height="54" as="geometry" />
        </mxCell>
        <mxCell id="Uk7aoLf_V0q4Sp2WocQO-13" value="Standard Dashboards &amp; Reports" style="whiteSpace=wrap;strokeWidth=2;" vertex="1" parent="1">
          <mxGeometry x="358" y="776" width="260" height="78" as="geometry" />
        </mxCell>
        <mxCell id="Uk7aoLf_V0q4Sp2WocQO-14" value="AI-Powered Insights&#xa;(Copilot, AutoML, NLP search)" style="whiteSpace=wrap;strokeWidth=2;" vertex="1" parent="1">
          <mxGeometry x="668" y="764" width="260" height="102" as="geometry" />
        </mxCell>
        <mxCell id="Uk7aoLf_V0q4Sp2WocQO-15" value="Forecasting Models&#xa;(e.g., churn, NPL)" style="whiteSpace=wrap;strokeWidth=2;" vertex="1" parent="1">
          <mxGeometry x="1264" y="776" width="196" height="78" as="geometry" />
        </mxCell>
        <mxCell id="Uk7aoLf_V0q4Sp2WocQO-16" value="Anomaly Detection" style="whiteSpace=wrap;strokeWidth=2;" vertex="1" parent="1">
          <mxGeometry x="1510" y="788" width="196" height="54" as="geometry" />
        </mxCell>
        <mxCell id="Uk7aoLf_V0q4Sp2WocQO-17" value="Recommendation Engine" style="whiteSpace=wrap;strokeWidth=2;" vertex="1" parent="1">
          <mxGeometry x="1756" y="788" width="236" height="54" as="geometry" />
        </mxCell>
        <mxCell id="Uk7aoLf_V0q4Sp2WocQO-18" value="Data Governance&#xa;(Metadata, Lineage)" style="whiteSpace=wrap;strokeWidth=2;" vertex="1" parent="1">
          <mxGeometry x="978" y="776" width="205" height="78" as="geometry" />
        </mxCell>
        <mxCell id="Uk7aoLf_V0q4Sp2WocQO-19" value="Access Control&#xa;(Role-Based, RLS)" style="whiteSpace=wrap;strokeWidth=2;" vertex="1" parent="1">
          <mxGeometry x="20" y="928" width="186" height="78" as="geometry" />
        </mxCell>
        <mxCell id="Uk7aoLf_V0q4Sp2WocQO-20" value="Audit &amp; Logging" style="whiteSpace=wrap;strokeWidth=2;" vertex="1" parent="1">
          <mxGeometry x="26" y="1068" width="173" height="54" as="geometry" />
        </mxCell>
        <mxCell id="Uk7aoLf_V0q4Sp2WocQO-21" value="Business Users&#xa;(Retail, Credit, Risk, Finance)" style="whiteSpace=wrap;strokeWidth=2;" vertex="1" parent="1">
          <mxGeometry x="600" y="1020" width="260" height="102" as="geometry" />
        </mxCell>
        <mxCell id="Uk7aoLf_V0q4Sp2WocQO-22" value="Data Analysts &amp; Scientists" style="whiteSpace=wrap;strokeWidth=2;" vertex="1" parent="1">
          <mxGeometry x="1317" y="940" width="245" height="54" as="geometry" />
        </mxCell>
        <mxCell id="Uk7aoLf_V0q4Sp2WocQO-23" value="IT &amp; Data Engineers" style="whiteSpace=wrap;strokeWidth=2;" vertex="1" parent="1">
          <mxGeometry x="1808" y="940" width="201" height="54" as="geometry" />
        </mxCell>
        <mxCell id="Uk7aoLf_V0q4Sp2WocQO-24" value="" style="curved=1;startArrow=none;endArrow=block;exitX=0.5;exitY=1;entryX=0;entryY=0.26;rounded=0;" edge="1" parent="1" source="Uk7aoLf_V0q4Sp2WocQO-1" target="Uk7aoLf_V0q4Sp2WocQO-6">
          <mxGeometry relative="1" as="geometry">
            <Array as="points">
              <mxPoint x="1391" y="99" />
            </Array>
          </mxGeometry>
        </mxCell>
        <mxCell id="Uk7aoLf_V0q4Sp2WocQO-25" value="" style="curved=1;startArrow=none;endArrow=block;exitX=0.5;exitY=1;entryX=0.05;entryY=0;rounded=0;" edge="1" parent="1" source="Uk7aoLf_V0q4Sp2WocQO-2" target="Uk7aoLf_V0q4Sp2WocQO-6">
          <mxGeometry relative="1" as="geometry">
            <Array as="points">
              <mxPoint x="1618" y="99" />
            </Array>
          </mxGeometry>
        </mxCell>
        <mxCell id="Uk7aoLf_V0q4Sp2WocQO-26" value="" style="curved=1;startArrow=none;endArrow=block;exitX=0.5;exitY=1;entryX=0.5;entryY=0;rounded=0;" edge="1" parent="1" source="Uk7aoLf_V0q4Sp2WocQO-3" target="Uk7aoLf_V0q4Sp2WocQO-7">
          <mxGeometry relative="1" as="geometry">
            <Array as="points" />
          </mxGeometry>
        </mxCell>
        <mxCell id="Uk7aoLf_V0q4Sp2WocQO-27" value="" style="curved=1;startArrow=none;endArrow=block;exitX=0.5;exitY=1;entryX=0.61;entryY=0;rounded=0;" edge="1" parent="1" source="Uk7aoLf_V0q4Sp2WocQO-4" target="Uk7aoLf_V0q4Sp2WocQO-6">
          <mxGeometry relative="1" as="geometry">
            <Array as="points">
              <mxPoint x="1835" y="99" />
            </Array>
          </mxGeometry>
        </mxCell>
        <mxCell id="Uk7aoLf_V0q4Sp2WocQO-28" value="" style="curved=1;startArrow=none;endArrow=block;exitX=0.5;exitY=1;entryX=0.99;entryY=0.18;rounded=0;" edge="1" parent="1" source="Uk7aoLf_V0q4Sp2WocQO-5" target="Uk7aoLf_V0q4Sp2WocQO-6">
          <mxGeometry relative="1" as="geometry">
            <Array as="points">
              <mxPoint x="2089" y="99" />
            </Array>
          </mxGeometry>
        </mxCell>
        <mxCell id="Uk7aoLf_V0q4Sp2WocQO-29" value="" style="curved=1;startArrow=none;endArrow=block;exitX=0.25;exitY=1;entryX=0.5;entryY=0;rounded=0;" edge="1" parent="1" source="Uk7aoLf_V0q4Sp2WocQO-6" target="Uk7aoLf_V0q4Sp2WocQO-8">
          <mxGeometry relative="1" as="geometry">
            <Array as="points">
              <mxPoint x="1697" y="227" />
            </Array>
          </mxGeometry>
        </mxCell>
        <mxCell id="Uk7aoLf_V0q4Sp2WocQO-30" value="" style="curved=1;startArrow=none;endArrow=block;exitX=0.5;exitY=1;entryX=1;entryY=0.41;rounded=0;" edge="1" parent="1" source="Uk7aoLf_V0q4Sp2WocQO-7" target="Uk7aoLf_V0q4Sp2WocQO-8">
          <mxGeometry relative="1" as="geometry">
            <Array as="points">
              <mxPoint x="2364" y="227" />
            </Array>
          </mxGeometry>
        </mxCell>
        <mxCell id="Uk7aoLf_V0q4Sp2WocQO-31" value="" style="curved=1;startArrow=none;endArrow=block;exitX=0;exitY=0.71;entryX=0.5;entryY=0;rounded=0;" edge="1" parent="1" source="Uk7aoLf_V0q4Sp2WocQO-8" target="Uk7aoLf_V0q4Sp2WocQO-9">
          <mxGeometry relative="1" as="geometry">
            <Array as="points">
              <mxPoint x="1412" y="355" />
            </Array>
          </mxGeometry>
        </mxCell>
        <mxCell id="Uk7aoLf_V0q4Sp2WocQO-32" value="" style="curved=1;startArrow=none;endArrow=block;exitX=0.5;exitY=1;entryX=0.5;entryY=0;rounded=0;" edge="1" parent="1" source="Uk7aoLf_V0q4Sp2WocQO-9" target="Uk7aoLf_V0q4Sp2WocQO-10">
          <mxGeometry relative="1" as="geometry">
            <Array as="points" />
          </mxGeometry>
        </mxCell>
        <mxCell id="Uk7aoLf_V0q4Sp2WocQO-33" value="" style="curved=1;startArrow=none;endArrow=block;exitX=0;exitY=0.62;entryX=0.5;entryY=0;rounded=0;" edge="1" parent="1" source="Uk7aoLf_V0q4Sp2WocQO-10" target="Uk7aoLf_V0q4Sp2WocQO-11">
          <mxGeometry relative="1" as="geometry">
            <Array as="points">
              <mxPoint x="639" y="587" />
            </Array>
          </mxGeometry>
        </mxCell>
        <mxCell id="Uk7aoLf_V0q4Sp2WocQO-34" value="" style="curved=1;startArrow=none;endArrow=block;exitX=0;exitY=0.72;entryX=0.5;entryY=0;rounded=0;" edge="1" parent="1" source="Uk7aoLf_V0q4Sp2WocQO-11" target="Uk7aoLf_V0q4Sp2WocQO-12">
          <mxGeometry relative="1" as="geometry">
            <Array as="points">
              <mxPoint x="206" y="739" />
            </Array>
          </mxGeometry>
        </mxCell>
        <mxCell id="Uk7aoLf_V0q4Sp2WocQO-35" value="" style="curved=1;startArrow=none;endArrow=block;exitX=0.11;exitY=1;entryX=0.5;entryY=0;rounded=0;" edge="1" parent="1" source="Uk7aoLf_V0q4Sp2WocQO-11" target="Uk7aoLf_V0q4Sp2WocQO-13">
          <mxGeometry relative="1" as="geometry">
            <Array as="points">
              <mxPoint x="488" y="739" />
            </Array>
          </mxGeometry>
        </mxCell>
        <mxCell id="Uk7aoLf_V0q4Sp2WocQO-36" value="" style="curved=1;startArrow=none;endArrow=block;exitX=0.91;exitY=1;entryX=0.5;entryY=0;rounded=0;" edge="1" parent="1" source="Uk7aoLf_V0q4Sp2WocQO-11" target="Uk7aoLf_V0q4Sp2WocQO-14">
          <mxGeometry relative="1" as="geometry">
            <Array as="points">
              <mxPoint x="798" y="739" />
            </Array>
          </mxGeometry>
        </mxCell>
        <mxCell id="Uk7aoLf_V0q4Sp2WocQO-37" value="" style="curved=1;startArrow=none;endArrow=block;exitX=0.37;exitY=1;entryX=0.5;entryY=0;rounded=0;" edge="1" parent="1" source="Uk7aoLf_V0q4Sp2WocQO-10" target="Uk7aoLf_V0q4Sp2WocQO-15">
          <mxGeometry relative="1" as="geometry">
            <Array as="points">
              <mxPoint x="1362" y="587" />
            </Array>
          </mxGeometry>
        </mxCell>
        <mxCell id="Uk7aoLf_V0q4Sp2WocQO-38" value="" style="curved=1;startArrow=none;endArrow=block;exitX=1;exitY=0.99;entryX=0.5;entryY=0;rounded=0;" edge="1" parent="1" source="Uk7aoLf_V0q4Sp2WocQO-10" target="Uk7aoLf_V0q4Sp2WocQO-16">
          <mxGeometry relative="1" as="geometry">
            <Array as="points">
              <mxPoint x="1608" y="587" />
            </Array>
          </mxGeometry>
        </mxCell>
        <mxCell id="Uk7aoLf_V0q4Sp2WocQO-39" value="" style="curved=1;startArrow=none;endArrow=block;exitX=1;exitY=0.71;entryX=0.5;entryY=0;rounded=0;" edge="1" parent="1" source="Uk7aoLf_V0q4Sp2WocQO-10" target="Uk7aoLf_V0q4Sp2WocQO-17">
          <mxGeometry relative="1" as="geometry">
            <Array as="points">
              <mxPoint x="1874" y="587" />
            </Array>
          </mxGeometry>
        </mxCell>
        <mxCell id="Uk7aoLf_V0q4Sp2WocQO-40" value="" style="curved=1;startArrow=none;endArrow=block;exitX=1;exitY=0.72;entryX=0.5;entryY=0;rounded=0;" edge="1" parent="1" source="Uk7aoLf_V0q4Sp2WocQO-11" target="Uk7aoLf_V0q4Sp2WocQO-18">
          <mxGeometry relative="1" as="geometry">
            <Array as="points">
              <mxPoint x="1080" y="739" />
            </Array>
          </mxGeometry>
        </mxCell>
        <mxCell id="Uk7aoLf_V0q4Sp2WocQO-41" value="" style="curved=1;startArrow=none;endArrow=block;exitX=0.19;exitY=1;entryX=0.42;entryY=0;rounded=0;" edge="1" parent="1" source="Uk7aoLf_V0q4Sp2WocQO-12" target="Uk7aoLf_V0q4Sp2WocQO-19">
          <mxGeometry relative="1" as="geometry">
            <Array as="points">
              <mxPoint x="83" y="891" />
            </Array>
          </mxGeometry>
        </mxCell>
        <mxCell id="Uk7aoLf_V0q4Sp2WocQO-42" value="" style="curved=1;startArrow=none;endArrow=block;exitX=0.26;exitY=1;entryX=1;entryY=0.14;rounded=0;" edge="1" parent="1" source="Uk7aoLf_V0q4Sp2WocQO-13" target="Uk7aoLf_V0q4Sp2WocQO-19">
          <mxGeometry relative="1" as="geometry">
            <Array as="points">
              <mxPoint x="367" y="891" />
            </Array>
          </mxGeometry>
        </mxCell>
        <mxCell id="Uk7aoLf_V0q4Sp2WocQO-43" value="" style="curved=1;startArrow=none;endArrow=block;exitX=0.5;exitY=1;entryX=0.5;entryY=0;rounded=0;" edge="1" parent="1" source="Uk7aoLf_V0q4Sp2WocQO-19" target="Uk7aoLf_V0q4Sp2WocQO-20">
          <mxGeometry relative="1" as="geometry">
            <Array as="points" />
          </mxGeometry>
        </mxCell>
        <mxCell id="Uk7aoLf_V0q4Sp2WocQO-44" value="" style="curved=1;startArrow=none;endArrow=block;exitX=0.56;exitY=1;entryX=0;entryY=0.36;rounded=0;" edge="1" parent="1" source="Uk7aoLf_V0q4Sp2WocQO-12" target="Uk7aoLf_V0q4Sp2WocQO-21">
          <mxGeometry relative="1" as="geometry">
            <Array as="points">
              <mxPoint x="229" y="891" />
            </Array>
          </mxGeometry>
        </mxCell>
        <mxCell id="Uk7aoLf_V0q4Sp2WocQO-45" value="" style="curved=1;startArrow=none;endArrow=block;exitX=0.79;exitY=1;entryX=0;entryY=0.19;rounded=0;" edge="1" parent="1" source="Uk7aoLf_V0q4Sp2WocQO-13" target="Uk7aoLf_V0q4Sp2WocQO-21">
          <mxGeometry relative="1" as="geometry">
            <Array as="points">
              <mxPoint x="633" y="891" />
            </Array>
          </mxGeometry>
        </mxCell>
        <mxCell id="Uk7aoLf_V0q4Sp2WocQO-46" value="" style="curved=1;startArrow=none;endArrow=block;exitX=0.5;exitY=1;entryX=0.12;entryY=0;rounded=0;" edge="1" parent="1" source="Uk7aoLf_V0q4Sp2WocQO-14" target="Uk7aoLf_V0q4Sp2WocQO-21">
          <mxGeometry relative="1" as="geometry">
            <Array as="points">
              <mxPoint x="798" y="891" />
            </Array>
          </mxGeometry>
        </mxCell>
        <mxCell id="Uk7aoLf_V0q4Sp2WocQO-47" value="" style="curved=1;startArrow=none;endArrow=block;exitX=0.12;exitY=1;entryX=1;entryY=0.14;rounded=0;" edge="1" parent="1" source="Uk7aoLf_V0q4Sp2WocQO-15" target="Uk7aoLf_V0q4Sp2WocQO-21">
          <mxGeometry relative="1" as="geometry">
            <Array as="points">
              <mxPoint x="1216" y="891" />
            </Array>
          </mxGeometry>
        </mxCell>
        <mxCell id="Uk7aoLf_V0q4Sp2WocQO-48" value="" style="curved=1;startArrow=none;endArrow=block;exitX=0.3;exitY=1;entryX=1;entryY=0.32;rounded=0;" edge="1" parent="1" source="Uk7aoLf_V0q4Sp2WocQO-16" target="Uk7aoLf_V0q4Sp2WocQO-21">
          <mxGeometry relative="1" as="geometry">
            <Array as="points">
              <mxPoint x="1495" y="891" />
            </Array>
          </mxGeometry>
        </mxCell>
        <mxCell id="Uk7aoLf_V0q4Sp2WocQO-49" value="" style="curved=1;startArrow=none;endArrow=block;exitX=0.5;exitY=1;entryX=1;entryY=0.4;rounded=0;" edge="1" parent="1" source="Uk7aoLf_V0q4Sp2WocQO-17" target="Uk7aoLf_V0q4Sp2WocQO-21">
          <mxGeometry relative="1" as="geometry">
            <Array as="points">
              <mxPoint x="1874" y="891" />
            </Array>
          </mxGeometry>
        </mxCell>
        <mxCell id="Uk7aoLf_V0q4Sp2WocQO-50" value="" style="curved=1;startArrow=none;endArrow=block;exitX=0.86;exitY=1;entryX=0;entryY=0.34;rounded=0;" edge="1" parent="1" source="Uk7aoLf_V0q4Sp2WocQO-12" target="Uk7aoLf_V0q4Sp2WocQO-22">
          <mxGeometry relative="1" as="geometry">
            <Array as="points">
              <mxPoint x="347" y="891" />
            </Array>
          </mxGeometry>
        </mxCell>
        <mxCell id="Uk7aoLf_V0q4Sp2WocQO-51" value="" style="curved=1;startArrow=none;endArrow=block;exitX=0.8;exitY=1;entryX=0.55;entryY=0;rounded=0;" edge="1" parent="1" source="Uk7aoLf_V0q4Sp2WocQO-15" target="Uk7aoLf_V0q4Sp2WocQO-22">
          <mxGeometry relative="1" as="geometry">
            <Array as="points">
              <mxPoint x="1475" y="891" />
            </Array>
          </mxGeometry>
        </mxCell>
        <mxCell id="Uk7aoLf_V0q4Sp2WocQO-52" value="" style="curved=1;startArrow=none;endArrow=block;exitX=0.72;exitY=1;entryX=0.92;entryY=0;rounded=0;" edge="1" parent="1" source="Uk7aoLf_V0q4Sp2WocQO-16" target="Uk7aoLf_V0q4Sp2WocQO-22">
          <mxGeometry relative="1" as="geometry">
            <Array as="points">
              <mxPoint x="1731" y="891" />
            </Array>
          </mxGeometry>
        </mxCell>
        <mxCell id="Uk7aoLf_V0q4Sp2WocQO-53" value="" style="curved=1;startArrow=none;endArrow=block;exitX=0.99;exitY=0.73;entryX=1;entryY=0.04;rounded=0;" edge="1" parent="1" source="Uk7aoLf_V0q4Sp2WocQO-6" target="Uk7aoLf_V0q4Sp2WocQO-23">
          <mxGeometry relative="1" as="geometry">
            <Array as="points">
              <mxPoint x="2216" y="227" />
              <mxPoint x="2216" y="891" />
            </Array>
          </mxGeometry>
        </mxCell>
        <mxCell id="Uk7aoLf_V0q4Sp2WocQO-54" value="" style="curved=1;startArrow=none;endArrow=block;exitX=1;exitY=0.68;entryX=0.71;entryY=0;rounded=0;" edge="1" parent="1" source="Uk7aoLf_V0q4Sp2WocQO-8" target="Uk7aoLf_V0q4Sp2WocQO-23">
          <mxGeometry relative="1" as="geometry">
            <Array as="points">
              <mxPoint x="2027" y="355" />
              <mxPoint x="2027" y="891" />
            </Array>
          </mxGeometry>
        </mxCell>
        <mxCell id="Uk7aoLf_V0q4Sp2WocQO-55" value="" style="curved=1;startArrow=none;endArrow=block;exitX=0.5;exitY=1;entryX=0;entryY=0.33;rounded=0;" edge="1" parent="1" source="Uk7aoLf_V0q4Sp2WocQO-18" target="Uk7aoLf_V0q4Sp2WocQO-23">
          <mxGeometry relative="1" as="geometry">
            <Array as="points">
              <mxPoint x="1080" y="891" />
            </Array>
          </mxGeometry>
        </mxCell>
        <mxCell id="Uk7aoLf_V0q4Sp2WocQO-56" value="Sources" style="whiteSpace=wrap;strokeWidth=2;" vertex="1" parent="1">
          <mxGeometry x="1313" y="1140" width="1265" height="279" as="geometry" />
        </mxCell>
        <mxCell id="Uk7aoLf_V0q4Sp2WocQO-57" value="Core Banking System" style="whiteSpace=wrap;strokeWidth=2;" vertex="1" parent="1">
          <mxGeometry x="1348" y="1165" width="209" height="54" as="geometry" />
        </mxCell>
        <mxCell id="Uk7aoLf_V0q4Sp2WocQO-58" value="ETL/ELT Layer&#xa;Streaming Tools&#xa;(Kafka, Event Hub)" style="whiteSpace=wrap;strokeWidth=2;" vertex="1" parent="1">
          <mxGeometry x="1747" y="1292" width="196" height="102" as="geometry" />
        </mxCell>
        <mxCell id="Uk7aoLf_V0q4Sp2WocQO-59" value="CRM System" style="whiteSpace=wrap;strokeWidth=2;" vertex="1" parent="1">
          <mxGeometry x="1607" y="1165" width="145" height="54" as="geometry" />
        </mxCell>
        <mxCell id="Uk7aoLf_V0q4Sp2WocQO-60" value="Payment Gateway" style="whiteSpace=wrap;strokeWidth=2;" vertex="1" parent="1">
          <mxGeometry x="1802" y="1165" width="189" height="54" as="geometry" />
        </mxCell>
        <mxCell id="Uk7aoLf_V0q4Sp2WocQO-61" value="Excel/Manual Uploads" style="whiteSpace=wrap;strokeWidth=2;" vertex="1" parent="1">
          <mxGeometry x="2041" y="1165" width="218" height="54" as="geometry" />
        </mxCell>
        <mxCell id="Uk7aoLf_V0q4Sp2WocQO-62" value="Internet/Mobile Banking" style="whiteSpace=wrap;strokeWidth=2;" vertex="1" parent="1">
          <mxGeometry x="2309" y="1165" width="234" height="54" as="geometry" />
        </mxCell>
        <mxCell id="Uk7aoLf_V0q4Sp2WocQO-63" value="Raw Zone&#xa;(Data Lake)" style="whiteSpace=wrap;strokeWidth=2;" vertex="1" parent="1">
          <mxGeometry x="1774" y="1491" width="143" height="78" as="geometry" />
        </mxCell>
        <mxCell id="Uk7aoLf_V0q4Sp2WocQO-64" value="Cleaned Zone&#xa;(Data Warehouse)" style="whiteSpace=wrap;strokeWidth=2;" vertex="1" parent="1">
          <mxGeometry x="1752" y="1642" width="187" height="78" as="geometry" />
        </mxCell>
        <mxCell id="Uk7aoLf_V0q4Sp2WocQO-65" value="Curated Data Marts" style="whiteSpace=wrap;strokeWidth=2;" vertex="1" parent="1">
          <mxGeometry x="1746" y="1792" width="198" height="54" as="geometry" />
        </mxCell>
        <mxCell id="Uk7aoLf_V0q4Sp2WocQO-66" value="Semantic Layer&#xa;(Power Dataset /&#xa;metrics / LookML)" style="whiteSpace=wrap;strokeWidth=2;" vertex="1" parent="1">
          <mxGeometry x="1400" y="1768" width="190" height="102" as="geometry" />
        </mxCell>
        <mxCell id="Uk7aoLf_V0q4Sp2WocQO-67" value="Self-Service BI Tools&#xa;(Power BI, Tableau)&#xa;Standard Dashboards&#xa;&amp;amp; Reports" style="whiteSpace=wrap;strokeWidth=2;" vertex="1" parent="1">
          <mxGeometry x="1070" y="2094" width="209" height="126" as="geometry" />
        </mxCell>
        <mxCell id="Uk7aoLf_V0q4Sp2WocQO-68" value="AI-Powered Insights&#xa;(Copilot, AutoML&#xa;Chat-based)" style="whiteSpace=wrap;strokeWidth=2;" vertex="1" parent="1">
          <mxGeometry x="1329" y="2106" width="200" height="102" as="geometry" />
        </mxCell>
        <mxCell id="Uk7aoLf_V0q4Sp2WocQO-69" value="Data Governance&#xa;(Metadata, Lineage)" style="whiteSpace=wrap;strokeWidth=2;" vertex="1" parent="1">
          <mxGeometry x="1579" y="2118" width="205" height="78" as="geometry" />
        </mxCell>
        <mxCell id="Uk7aoLf_V0q4Sp2WocQO-70" value="Forecasting Models&#xa;(e.g., churn, NLP)" style="whiteSpace=wrap;strokeWidth=2;" vertex="1" parent="1">
          <mxGeometry x="1834" y="2118" width="196" height="78" as="geometry" />
        </mxCell>
        <mxCell id="Uk7aoLf_V0q4Sp2WocQO-71" value="Anomaly Detection" style="whiteSpace=wrap;strokeWidth=2;" vertex="1" parent="1">
          <mxGeometry x="2080" y="2130" width="196" height="54" as="geometry" />
        </mxCell>
        <mxCell id="Uk7aoLf_V0q4Sp2WocQO-72" value="Recommendation Engine" style="whiteSpace=wrap;strokeWidth=2;" vertex="1" parent="1">
          <mxGeometry x="2325" y="2130" width="236" height="54" as="geometry" />
        </mxCell>
        <mxCell id="Uk7aoLf_V0q4Sp2WocQO-73" value="Business Users&#xa;(Retail, Credit, Risk,&#xa;Finance)" style="whiteSpace=wrap;strokeWidth=2;" vertex="1" parent="1">
          <mxGeometry x="1324" y="2292" width="207" height="102" as="geometry" />
        </mxCell>
        <mxCell id="Uk7aoLf_V0q4Sp2WocQO-74" value="Data Analysts &amp; Scientists" style="whiteSpace=wrap;strokeWidth=2;" vertex="1" parent="1">
          <mxGeometry x="2065" y="2316" width="245" height="54" as="geometry" />
        </mxCell>
        <mxCell id="Uk7aoLf_V0q4Sp2WocQO-75" value="Access Control&#xa;(Role-Based, RLS)" style="whiteSpace=wrap;strokeWidth=2;" vertex="1" parent="1">
          <mxGeometry x="2172" y="2467" width="186" height="78" as="geometry" />
        </mxCell>
        <mxCell id="Uk7aoLf_V0q4Sp2WocQO-76" value="IT &amp; Data Engineers" style="whiteSpace=wrap;strokeWidth=2;" vertex="1" parent="1">
          <mxGeometry x="2360" y="2316" width="201" height="54" as="geometry" />
        </mxCell>
        <mxCell id="Uk7aoLf_V0q4Sp2WocQO-77" value="Audit &amp; Logging" style="whiteSpace=wrap;strokeWidth=2;" vertex="1" parent="1">
          <mxGeometry x="2179" y="2617" width="173" height="54" as="geometry" />
        </mxCell>
        <mxCell id="Uk7aoLf_V0q4Sp2WocQO-78" value="ETL/ELT" style="curved=1;startArrow=none;endArrow=block;exitX=0.5;exitY=1;entryX=0;entryY=0.28;rounded=0;" edge="1" parent="1" source="Uk7aoLf_V0q4Sp2WocQO-57" target="Uk7aoLf_V0q4Sp2WocQO-58">
          <mxGeometry relative="1" as="geometry">
            <Array as="points">
              <mxPoint x="1452" y="1255" />
            </Array>
          </mxGeometry>
        </mxCell>
        <mxCell id="Uk7aoLf_V0q4Sp2WocQO-79" value="ETL/ELT" style="curved=1;startArrow=none;endArrow=block;exitX=0.5;exitY=1;entryX=0.01;entryY=0;rounded=0;" edge="1" parent="1" source="Uk7aoLf_V0q4Sp2WocQO-59" target="Uk7aoLf_V0q4Sp2WocQO-58">
          <mxGeometry relative="1" as="geometry">
            <Array as="points">
              <mxPoint x="1679" y="1255" />
            </Array>
          </mxGeometry>
        </mxCell>
        <mxCell id="Uk7aoLf_V0q4Sp2WocQO-80" value="ETL/ELT" style="curved=1;startArrow=none;endArrow=block;exitX=0.5;exitY=1;entryX=0.65;entryY=0;rounded=0;" edge="1" parent="1" source="Uk7aoLf_V0q4Sp2WocQO-60" target="Uk7aoLf_V0q4Sp2WocQO-58">
          <mxGeometry relative="1" as="geometry">
            <Array as="points">
              <mxPoint x="1897" y="1255" />
            </Array>
          </mxGeometry>
        </mxCell>
        <mxCell id="Uk7aoLf_V0q4Sp2WocQO-81" value="ETL/ELT" style="curved=1;startArrow=none;endArrow=block;exitX=0.5;exitY=1;entryX=1;entryY=0.22;rounded=0;" edge="1" parent="1" source="Uk7aoLf_V0q4Sp2WocQO-61" target="Uk7aoLf_V0q4Sp2WocQO-58">
          <mxGeometry relative="1" as="geometry">
            <Array as="points">
              <mxPoint x="2150" y="1255" />
            </Array>
          </mxGeometry>
        </mxCell>
        <mxCell id="Uk7aoLf_V0q4Sp2WocQO-82" value="Streaming" style="curved=1;startArrow=none;endArrow=block;exitX=0.5;exitY=1;entryX=1;entryY=0.35;rounded=0;" edge="1" parent="1" source="Uk7aoLf_V0q4Sp2WocQO-62" target="Uk7aoLf_V0q4Sp2WocQO-58">
          <mxGeometry relative="1" as="geometry">
            <Array as="points">
              <mxPoint x="2426" y="1255" />
            </Array>
          </mxGeometry>
        </mxCell>
        <mxCell id="Uk7aoLf_V0q4Sp2WocQO-83" value="Raw Data" style="curved=1;startArrow=none;endArrow=block;exitX=0.5;exitY=1;entryX=0.5;entryY=0;rounded=0;" edge="1" parent="1" source="Uk7aoLf_V0q4Sp2WocQO-58" target="Uk7aoLf_V0q4Sp2WocQO-63">
          <mxGeometry relative="1" as="geometry">
            <Array as="points" />
          </mxGeometry>
        </mxCell>
        <mxCell id="Uk7aoLf_V0q4Sp2WocQO-84" value="Cleaned Data" style="curved=1;startArrow=none;endArrow=block;exitX=0.5;exitY=1;entryX=0.5;entryY=0;rounded=0;" edge="1" parent="1" source="Uk7aoLf_V0q4Sp2WocQO-63" target="Uk7aoLf_V0q4Sp2WocQO-64">
          <mxGeometry relative="1" as="geometry">
            <Array as="points" />
          </mxGeometry>
        </mxCell>
        <mxCell id="Uk7aoLf_V0q4Sp2WocQO-85" value="Curated Data" style="curved=1;startArrow=none;endArrow=block;exitX=0.5;exitY=1;entryX=0.5;entryY=0.01;rounded=0;" edge="1" parent="1" source="Uk7aoLf_V0q4Sp2WocQO-64" target="Uk7aoLf_V0q4Sp2WocQO-65">
          <mxGeometry relative="1" as="geometry">
            <Array as="points" />
          </mxGeometry>
        </mxCell>
        <mxCell id="Uk7aoLf_V0q4Sp2WocQO-86" value="Semantic Data" style="curved=1;startArrow=none;endArrow=block;exitX=0;exitY=0.5;rounded=0;exitDx=0;exitDy=0;entryX=1;entryY=0.5;entryDx=0;entryDy=0;" edge="1" parent="1" source="Uk7aoLf_V0q4Sp2WocQO-65" target="Uk7aoLf_V0q4Sp2WocQO-66">
          <mxGeometry relative="1" as="geometry">
            <Array as="points" />
          </mxGeometry>
        </mxCell>
        <mxCell id="Uk7aoLf_V0q4Sp2WocQO-87" value="BI Output" style="curved=1;startArrow=none;endArrow=block;exitX=0;exitY=0.62;entryX=0.5;entryY=0;rounded=0;" edge="1" parent="1" source="Uk7aoLf_V0q4Sp2WocQO-66" target="Uk7aoLf_V0q4Sp2WocQO-67">
          <mxGeometry relative="1" as="geometry">
            <Array as="points">
              <mxPoint x="1175" y="2057" />
            </Array>
          </mxGeometry>
        </mxCell>
        <mxCell id="Uk7aoLf_V0q4Sp2WocQO-88" value="AI Output" style="curved=1;startArrow=none;endArrow=block;exitX=0.5;exitY=1;entryX=0.5;entryY=0;rounded=0;exitDx=0;exitDy=0;" edge="1" parent="1" source="Uk7aoLf_V0q4Sp2WocQO-66" target="Uk7aoLf_V0q4Sp2WocQO-68">
          <mxGeometry relative="1" as="geometry">
            <Array as="points">
              <mxPoint x="1429" y="2057" />
            </Array>
          </mxGeometry>
        </mxCell>
        <mxCell id="Uk7aoLf_V0q4Sp2WocQO-89" value="Governance Output" style="curved=1;startArrow=none;endArrow=block;exitX=0.5;exitY=1;entryX=0.5;entryY=-0.01;rounded=0;exitDx=0;exitDy=0;" edge="1" parent="1" source="Uk7aoLf_V0q4Sp2WocQO-66" target="Uk7aoLf_V0q4Sp2WocQO-69">
          <mxGeometry relative="1" as="geometry">
            <Array as="points">
              <mxPoint x="1681" y="2057" />
            </Array>
          </mxGeometry>
        </mxCell>
        <mxCell id="Uk7aoLf_V0q4Sp2WocQO-90" value="Forecast Output" style="curved=1;startArrow=none;endArrow=block;exitX=1;exitY=0.5;entryX=0.5;entryY=-0.01;rounded=0;exitDx=0;exitDy=0;" edge="1" parent="1" source="Uk7aoLf_V0q4Sp2WocQO-65" target="Uk7aoLf_V0q4Sp2WocQO-70">
          <mxGeometry relative="1" as="geometry">
            <Array as="points">
              <mxPoint x="2050" y="2050" />
            </Array>
          </mxGeometry>
        </mxCell>
        <mxCell id="Uk7aoLf_V0q4Sp2WocQO-91" value="Anomaly Output" style="curved=1;startArrow=none;endArrow=block;exitX=1;exitY=0.5;entryX=0.5;entryY=-0.01;rounded=0;exitDx=0;exitDy=0;" edge="1" parent="1" source="Uk7aoLf_V0q4Sp2WocQO-65" target="Uk7aoLf_V0q4Sp2WocQO-71">
          <mxGeometry relative="1" as="geometry">
            <Array as="points">
              <mxPoint x="2178" y="2057" />
            </Array>
          </mxGeometry>
        </mxCell>
        <mxCell id="Uk7aoLf_V0q4Sp2WocQO-92" value="Recommendation Output" style="curved=1;startArrow=none;endArrow=block;exitX=1;exitY=0.5;entryX=0.5;entryY=-0.01;rounded=0;exitDx=0;exitDy=0;" edge="1" parent="1" source="Uk7aoLf_V0q4Sp2WocQO-65" target="Uk7aoLf_V0q4Sp2WocQO-72">
          <mxGeometry relative="1" as="geometry">
            <Array as="points">
              <mxPoint x="2443" y="2057" />
            </Array>
          </mxGeometry>
        </mxCell>
        <mxCell id="Uk7aoLf_V0q4Sp2WocQO-93" value="Access" style="curved=1;startArrow=none;endArrow=block;exitX=0.5;exitY=1;entryX=0;entryY=0.15;rounded=0;" edge="1" parent="1" source="Uk7aoLf_V0q4Sp2WocQO-67" target="Uk7aoLf_V0q4Sp2WocQO-73">
          <mxGeometry relative="1" as="geometry">
            <Array as="points">
              <mxPoint x="1175" y="2256" />
            </Array>
          </mxGeometry>
        </mxCell>
        <mxCell id="Uk7aoLf_V0q4Sp2WocQO-94" value="Access" style="curved=1;startArrow=none;endArrow=block;exitX=0.5;exitY=1;entryX=0.51;entryY=0;rounded=0;" edge="1" parent="1" source="Uk7aoLf_V0q4Sp2WocQO-68" target="Uk7aoLf_V0q4Sp2WocQO-73">
          <mxGeometry relative="1" as="geometry">
            <Array as="points">
              <mxPoint x="1429" y="2256" />
            </Array>
          </mxGeometry>
        </mxCell>
        <mxCell id="Uk7aoLf_V0q4Sp2WocQO-95" value="Access" style="curved=1;startArrow=none;endArrow=block;exitX=0.5;exitY=0.99;entryX=1;entryY=0.15;rounded=0;" edge="1" parent="1" source="Uk7aoLf_V0q4Sp2WocQO-69" target="Uk7aoLf_V0q4Sp2WocQO-73">
          <mxGeometry relative="1" as="geometry">
            <Array as="points">
              <mxPoint x="1681" y="2256" />
            </Array>
          </mxGeometry>
        </mxCell>
        <mxCell id="Uk7aoLf_V0q4Sp2WocQO-96" value="Access" style="curved=1;startArrow=none;endArrow=block;exitX=0.5;exitY=0.99;entryX=0.18;entryY=0;rounded=0;" edge="1" parent="1" source="Uk7aoLf_V0q4Sp2WocQO-70" target="Uk7aoLf_V0q4Sp2WocQO-74">
          <mxGeometry relative="1" as="geometry">
            <Array as="points">
              <mxPoint x="1932" y="2256" />
            </Array>
          </mxGeometry>
        </mxCell>
        <mxCell id="Uk7aoLf_V0q4Sp2WocQO-97" value="Access" style="curved=1;startArrow=none;endArrow=block;exitX=0.5;exitY=0.99;entryX=0.49;entryY=0;rounded=0;" edge="1" parent="1" source="Uk7aoLf_V0q4Sp2WocQO-71" target="Uk7aoLf_V0q4Sp2WocQO-74">
          <mxGeometry relative="1" as="geometry">
            <Array as="points">
              <mxPoint x="2178" y="2256" />
            </Array>
          </mxGeometry>
        </mxCell>
        <mxCell id="Uk7aoLf_V0q4Sp2WocQO-98" value="Access" style="curved=1;startArrow=none;endArrow=block;exitX=0.5;exitY=0.99;entryX=0.82;entryY=0;rounded=0;" edge="1" parent="1" source="Uk7aoLf_V0q4Sp2WocQO-72" target="Uk7aoLf_V0q4Sp2WocQO-74">
          <mxGeometry relative="1" as="geometry">
            <Array as="points">
              <mxPoint x="2443" y="2256" />
            </Array>
          </mxGeometry>
        </mxCell>
        <mxCell id="Uk7aoLf_V0q4Sp2WocQO-99" value="Access Control" style="curved=1;startArrow=none;endArrow=block;exitX=0.5;exitY=1;entryX=0;entryY=0.39;rounded=0;" edge="1" parent="1" source="Uk7aoLf_V0q4Sp2WocQO-73" target="Uk7aoLf_V0q4Sp2WocQO-75">
          <mxGeometry relative="1" as="geometry">
            <Array as="points">
              <mxPoint x="1428" y="2430" />
            </Array>
          </mxGeometry>
        </mxCell>
        <mxCell id="Uk7aoLf_V0q4Sp2WocQO-100" value="Access Control" style="curved=1;startArrow=none;endArrow=block;exitX=0.5;exitY=1;entryX=0.28;entryY=0;rounded=0;" edge="1" parent="1" source="Uk7aoLf_V0q4Sp2WocQO-74" target="Uk7aoLf_V0q4Sp2WocQO-75">
          <mxGeometry relative="1" as="geometry">
            <Array as="points">
              <mxPoint x="2187" y="2430" />
            </Array>
          </mxGeometry>
        </mxCell>
        <mxCell id="Uk7aoLf_V0q4Sp2WocQO-101" value="Access Control" style="curved=1;startArrow=none;endArrow=block;exitX=0.5;exitY=1;entryX=1;entryY=0.04;rounded=0;" edge="1" parent="1" source="Uk7aoLf_V0q4Sp2WocQO-76" target="Uk7aoLf_V0q4Sp2WocQO-75">
          <mxGeometry relative="1" as="geometry">
            <Array as="points">
              <mxPoint x="2461" y="2430" />
            </Array>
          </mxGeometry>
        </mxCell>
        <mxCell id="Uk7aoLf_V0q4Sp2WocQO-102" value="Audit" style="curved=1;startArrow=none;endArrow=block;exitX=0.5;exitY=1;entryX=0.5;entryY=0.01;rounded=0;" edge="1" parent="1" source="Uk7aoLf_V0q4Sp2WocQO-75" target="Uk7aoLf_V0q4Sp2WocQO-77">
          <mxGeometry relative="1" as="geometry">
            <Array as="points" />
          </mxGeometry>
        </mxCell>
      </root>
    </mxGraphModel>
  </diagram>
</mxfile>
